# xmcd
#
# Track frame offsets:
# 150
# 20286
# 34572
# 53122
# 71505
# 90089
# 105773
# 122221
# 140514
# 157924
# 176190
# 193674
# 209432
# 232638
# 253922
#
# Disc length: 3631 seconds
#
#
# Revision: 0
# Processed by: cddbd v1.5.2PL0 Copyright (c) Steve Scherf et al.
# Submitted via: FreeRIP 2.96 
#
DISCID=bb0e2d0f
DTITLE=蘇永康 - 愛音樂 三人行: 蘇永康 (2)
DYEAR=2006
DGENRE=Pop
TTITLE0=一起真的不易
TTITLE1=山水有相逢
TTITLE2=從來未發生
TTITLE3=情來自有方
TTITLE4=獨立宣言
TTITLE5=請將音量收細
TTITLE6=不想獨自快樂
TTITLE7=越吻越傷心
TTITLE8=來夜方長
TTITLE9=我不是愛過就算的人
TTITLE10=我女人
TTITLE11=因為愛你 (更珍惜我自己)
TTITLE12=其實我很擔心
TTITLE13=相遇太早
TTITLE14=意猶未盡
EXTD=
EXTT0=
EXTT1=
EXTT2=
EXTT3=
EXTT4=
EXTT5=
EXTT6=
EXTT7=
EXTT8=
EXTT9=
EXTT10=
EXTT11=
EXTT12=
EXTT13=
EXTT14=
PLAYORDER=
